<?xml version="1.0" encoding="UTF-8"?>
<svg id="Layer_1" xmlns="http://www.w3.org/2000/svg" xmlns:xlink="http://www.w3.org/1999/xlink" version="1.1" viewBox="0 0 40 40">
  <!-- Generator: Adobe Illustrator 30.3.0, SVG Export Plug-In . SVG Version: 2.1.3 Build 182)  -->
  <defs>
    <style>
      .st0 {
        fill: none;
      }

      .st1 {
        fill: #4285f4;
      }

      .st2 {
        fill: #e94235;
      }

      .st3 {
        fill: #34a853;
      }

      .st4 {
        fill: #fbbc04;
      }

      .st5 {
        clip-path: url(#clippath);
      }
    </style>
    <clipPath id="clippath">
      <rect class="st0" x=".6" y=".6" width="38.7" height="38.7"/>
    </clipPath>
  </defs>
  <g class="st5">
    <path class="st1" d="M38.6,20.4c0-1.4-.1-2.7-.4-4h-18.2v7.5h10.4c-.4,2.4-1.8,4.5-3.9,5.8v4.9h6.3c3.7-3.4,5.8-8.3,5.8-14.2Z"/>
    <path class="st3" d="M20,39.4c5.2,0,9.6-1.7,12.8-4.7l-6.3-4.9c-1.7,1.2-3.9,1.8-6.6,1.8-5,0-9.3-3.4-10.8-8H2.7v5c3.2,6.3,9.7,10.7,17.3,10.7Z"/>
    <path class="st4" d="M9.2,23.7c-.4-1.2-.6-2.4-.6-3.7s.2-2.5.6-3.7v-5H2.7c-1.3,2.6-2.1,5.6-2.1,8.7s.7,6.1,2.1,8.7l6.5-5Z"/>
    <path class="st2" d="M20,8.3c2.8,0,5.4,1,7.4,2.9l5.6-5.6c-3.4-3.1-7.7-5-12.9-5C12.4.6,5.9,5,2.7,11.3l6.5,5c1.5-4.6,5.8-8,10.8-8Z"/>
  </g>
</svg>