<?xml version="1.0" encoding="UTF-8"?>
<svg id="Layer_1" xmlns="http://www.w3.org/2000/svg" xmlns:xlink="http://www.w3.org/1999/xlink" version="1.1" viewBox="0 0 800 800">
  <!-- Generator: Adobe Illustrator 30.3.0, SVG Export Plug-In . SVG Version: 2.1.3 Build 182)  -->
  <defs>
    <style>
      .st0 {
        fill: none;
      }

      .st1 {
        fill: #4285f4;
      }

      .st2 {
        fill: #e94235;
      }

      .st3 {
        fill: #34a853;
      }

      .st4 {
        fill: #fbbc04;
      }

      .st5 {
        clip-path: url(#clippath);
      }
    </style>
    <clipPath id="clippath">
      <rect class="st0" x="33.8" y="31.8" width="738.4" height="738.4"/>
    </clipPath>
  </defs>
  <g class="st5">
    <path class="st1" d="M757.4,409.4c0-26.2-2.3-51.4-6.7-75.5h-347.7v142.8h198.7c-8.6,46.1-34.6,85.3-73.7,111.4v92.6h119.3c69.8-64.3,110.1-158.9,110.1-271.4Z"/>
    <path class="st3" d="M403,770.2c99.7,0,183.3-33.1,244.3-89.4l-119.3-92.6c-33.1,22.2-75.3,35.2-125,35.2-96.2,0-177.5-64.9-206.6-152.2h-123.3v95.7c60.8,120.7,185.6,203.4,329.9,203.4Z"/>
    <path class="st4" d="M196.4,471.1c-7.4-22.2-11.6-45.8-11.6-70.1s4.2-48,11.6-70.1v-95.7h-123.3c-25,49.8-39.3,106.2-39.3,165.8s14.3,116,39.3,165.8l123.3-95.7Z"/>
    <path class="st2" d="M403,178.6c54.2,0,102.9,18.6,141.1,55.2l105.9-105.9c-63.9-59.6-147.5-96.2-247-96.2-144.3,0-269.2,82.7-329.9,203.4l123.3,95.7c29-87.3,110.4-152.2,206.6-152.2Z"/>
  </g>
</svg>